# xmcd
#
# Track frame offsets: 
#        150
#        14231
#        26430
#        38767
#        54160
#        67268
#        80210
#        91818
#        106074
#        118963
#        133283
#        147927
#        161746
#        176099
#        189893
#        203504
#        216842
#        229109
#        242295
#        254366
#        269722
#        283120
#        296234
#
# Disc length: 4135 seconds
#
# Revision: 1
# Processed by: cddbd v1.5.2PL0 Copyright (c) Steve Scherf et al.
# Submitted via: ExactAudioCopyFreeDBPlugin 1.0
#
DISCID=60102517
DTITLE=Various Artist - Texas Hillbillies 1922-1937  CD A
DYEAR=2018
DGENRE=Texas Hillbilly
TTITLE0=Eck Robertson - Sallie Gooden 
TTITLE1=Lewis Brothers - Sally Johnson 
TTITLE2=Lewis Brothers - Bull at the Wagon 
TTITLE3=Prince Albert Hunt's Texas Ramblers - Blues in a Bottle 
TTITLE4=Prince Albert Hunt's Texas Ramblers - Traveling Man  
TTITLE5=Red Headed Fiddler - Paddy on the Handcar 
TTITLE6=Red Headed Fiddler - The Steeley Rag 
TTITLE7=Cartwright Brothers - San Antonio 
TTITLE8=Cartwright Brothers - Zacatecas  
TTITLE9=East Texas Serenaders - Dream Shadows 
TTITLE10=East Texas Serenaders - Babe  
TTITLE11=The Fox Chasers - Eighth of January  
TTITLE12=The Fox Chasers - Forked Deer  
TTITLE13=Oscar and Doc Harper - Beaumont Rag   
TTITLE14=Oscar and Doc Harper - Billy in the Lowground  
TTITLE15=East Texas Serenaders - Gulf Waltz  
TTITLE16=East Texas Serenaders - Mineola Rag 
TTITLE17=Red Headed Fiddler - Texas Quickstep 
TTITLE18=Red Headed Fiddler - Never Alone Waltz 
TTITLE19=Eck Robertson - Ragtime Annie  
TTITLE20=HC Gilliland and Eck Robertson - Turkey in the Straw
TTITLE21=East Texas Serenaders - Acorn Stomp  
TTITLE22=East Texas Serenaders - Shannon Waltz  
EXTD=
EXTT0=
EXTT1=
EXTT2=
EXTT3=
EXTT4=
EXTT5=
EXTT6=
EXTT7=
EXTT8=
EXTT9=
EXTT10=
EXTT11=
EXTT12=
EXTT13=
EXTT14=
EXTT15=
EXTT16=
EXTT17=
EXTT18=
EXTT19=
EXTT20=
EXTT21=
EXTT22=
PLAYORDER=
